<svg xmlns="http://www.w3.org/2000/svg" viewBox="0 0 220.00 64.00" fill="none">

<g transform="translate(0 0) scale(0.64)"><path d="M 5 50 A 45 45 0 1 0 95 50 A 45 45 0 1 0 5 50 Z" fill="none" stroke="#0A0A0A" stroke-width="2.6"></path><path d="M 28 34 L 38 68 L 50 48 L 62 68 L 72 34" fill="none" stroke="#0A0A0A" stroke-width="3" stroke-linejoin="miter" stroke-linecap="butt"></path></g>
<path d="M832.031-294.922L31.250-294.922L31.250-217.773L383.789-217.773L383.789 83.008L474.609 83.008L474.609-217.773L832.031-217.773ZM429.688-758.789C244.141-758.789 118.164-683.594 118.164-564.453C118.164-446.289 244.141-372.070 429.688-372.070C614.258-372.070 741.211-446.289 741.211-564.453C741.211-683.594 614.258-758.789 429.688-758.789ZM429.688-684.570C559.570-683.594 646.484-638.672 646.484-564.453C646.484-491.211 559.570-446.289 429.688-446.289C299.805-446.289 212.891-491.211 213.867-564.453C212.891-638.672 299.805-683.594 429.688-684.570ZM1683.047-791.992L1590.273-791.992L1590.273 84.961L1683.047 84.961ZM1415.469-712.891L1005.313-712.891L1005.313-637.695L1320.742-637.695L1320.742-467.773L1006.289-467.773L1006.289-125L1080.508-125C1234.805-125 1366.641-130.859 1521.914-157.227L1513.125-233.398C1366.641-208.984 1242.617-202.637 1101.016-202.148L1101.016-393.555L1415.469-393.555ZM2339.727-708.008L1929.570-708.008L1929.570-132.813L2339.727-132.813ZM2021.367-634.766L2249.883-634.766L2249.883-208.008L2021.367-208.008ZM2605.352-791.992L2512.578-791.992L2512.578 84.961L2605.352 84.961ZM3529.609-791.992L3436.836-791.992L3436.836 84.961L3529.609 84.961ZM3279.609-710.938L2860.664-710.938L2860.664-129.883L2932.930-129.883C3114.570-129.883 3228.828-135.742 3359.688-159.180L3349.922-236.328C3226.387-213.867 3120.430-209.473 2954.414-208.984L2954.414-633.789L3279.609-633.789ZM3966.563-726.563C3835.703-726.563 3743.906-607.422 3744.883-419.922C3743.906-231.445 3835.703-112.305 3966.563-112.305C4088.145-112.305 4177.012-218.262 4187.266-388.672L4366.953-388.672L4366.953 84.961L4458.750 84.961L4458.750-791.992L4366.953-791.992L4366.953-463.867L4186.289-463.867C4172.129-625.977 4085.215-726.563 3966.563-726.563ZM3966.563-643.555C4045.664-643.555 4100.352-557.617 4100.352-419.922C4100.352-281.250 4045.664-195.313 3966.563-195.313C3887.461-195.313 3832.773-281.250 3832.773-419.922C3832.773-557.617 3887.461-643.555 3966.563-643.555Z" fill="#0A0A0A" transform="translate(79.053 42.710) scale(0.030295)"></path>
</svg>