<svg xmlns="http://www.w3.org/2000/svg" viewBox="0 0 400 291" fill="none">

<g transform="translate(135 30) scale(1.3)"><path d="M 5 50 A 45 45 0 1 0 95 50 A 45 45 0 1 0 5 50 Z" fill="none" stroke="#0A0A0A" stroke-width="2.6"></path><path d="M 28 34 L 38 68 L 50 48 L 62 68 L 72 34" fill="none" stroke="#0A0A0A" stroke-width="3" stroke-linejoin="miter" stroke-linecap="butt"></path></g>
<path d="M302 0L151 0L37-700L121-700L220-54L234-54L363-700L513-700L641-54L655-54L754-700L838-700L724 0L574 0L445-650L431-650L302 0ZM1389 14L1389 14Q1264 14 1189.500-58.500Q1115-131 1115-270L1115-270L1115-430Q1115-569 1189.500-641.500Q1264-714 1389-714L1389-714Q1515-714 1589.500-641.500Q1664-569 1664-430L1664-430L1664-270Q1664-131 1589.500-58.500Q1515 14 1389 14ZM1389-61L1389-61Q1480-61 1530-115.500Q1580-170 1580-267L1580-267L1580-433Q1580-530 1530-584.500Q1480-639 1389-639L1389-639Q1299-639 1249-584.500Q1199-530 1199-433L1199-433L1199-267Q1199-170 1249-115.500Q1299-61 1389-61ZM2238 14L2238 14Q2113 14 2038.500-58.500Q1964-131 1964-270L1964-270L1964-430Q1964-569 2038.500-641.500Q2113-714 2238-714L2238-714Q2364-714 2438.500-641.500Q2513-569 2513-430L2513-430L2513-270Q2513-131 2438.500-58.500Q2364 14 2238 14ZM2238-61L2238-61Q2329-61 2379-115.500Q2429-170 2429-267L2429-267L2429-433Q2429-530 2379-584.500Q2329-639 2238-639L2238-639Q2148-639 2098-584.500Q2048-530 2048-433L2048-433L2048-267Q2048-170 2098-115.500Q2148-61 2238-61ZM2917 0L2833 0L2833-700L3116-700Q3181-700 3230.500-677.500Q3280-655 3308-613.500Q3336-572 3336-514L3336-514L3336-503Q3336-434 3303-394Q3270-354 3225-340L3225-340L3225-326Q3261-325 3284.500-302.500Q3308-280 3308-235L3308-235L3308 0L3225 0L3225-225Q3225-255 3208.500-271Q3192-287 3159-287L3159-287L2917-287L2917 0ZM2917-624L2917-363L3108-363Q3177-363 3214.500-396.500Q3252-430 3252-490L3252-490L3252-497Q3252-557 3215-590.500Q3178-624 3108-624L3108-624L2917-624ZM3728 0L3644 0L3644-700L3728-700L3728 0ZM4149 0L4068 0L4068-700L4228-700L4414-53L4427-53L4613-700L4773-700L4773 0L4692 0L4692-645L4678-645L4493 0L4348 0L4163-645L4149-645L4149 0ZM5549 0L5113 0L5113-700L5544-700L5544-624L5197-624L5197-390L5516-390L5516-314L5197-314L5197-76L5549-76L5549 0ZM6096 0L5823 0L5823-75L5921-75L5921-625L5823-625L5823-700L6096-700Q6234-700 6309.500-630Q6385-560 6385-415L6385-415L6385-285Q6385-139 6309.500-69.500Q6234 0 6096 0L6096 0ZM6005-623L6005-76L6096-76Q6198-76 6250-126Q6302-176 6302-281L6302-281L6302-418Q6302-525 6250-574Q6198-623 6096-623L6096-623L6005-623ZM6783 0L6699 0L6699-700L6783-700L6783 0ZM7155 0L7068 0L7284-700L7432-700L7648 0L7561 0L7507-177L7209-177L7155 0ZM7351-649L7230-253L7485-253L7365-649L7351-649Z" fill="#0A0A0A" transform="translate(68.775 217.639) scale(0.033108)"></path>
<path d="M832.031-294.922L31.250-294.922L31.250-217.773L383.789-217.773L383.789 83.008L474.609 83.008L474.609-217.773L832.031-217.773ZM429.688-758.789C244.141-758.789 118.164-683.594 118.164-564.453C118.164-446.289 244.141-372.070 429.688-372.070C614.258-372.070 741.211-446.289 741.211-564.453C741.211-683.594 614.258-758.789 429.688-758.789ZM429.688-684.570C559.570-683.594 646.484-638.672 646.484-564.453C646.484-491.211 559.570-446.289 429.688-446.289C299.805-446.289 212.891-491.211 213.867-564.453C212.891-638.672 299.805-683.594 429.688-684.570ZM1983.047-791.992L1890.273-791.992L1890.273 84.961L1983.047 84.961ZM1715.469-712.891L1305.313-712.891L1305.313-637.695L1620.742-637.695L1620.742-467.773L1306.289-467.773L1306.289-125L1380.508-125C1534.805-125 1666.641-130.859 1821.914-157.227L1813.125-233.398C1666.641-208.984 1542.617-202.637 1401.016-202.148L1401.016-393.555L1715.469-393.555ZM2939.727-708.008L2529.570-708.008L2529.570-132.813L2939.727-132.813ZM2621.367-634.766L2849.883-634.766L2849.883-208.008L2621.367-208.008ZM3205.352-791.992L3112.578-791.992L3112.578 84.961L3205.352 84.961ZM4429.609-791.992L4336.836-791.992L4336.836 84.961L4429.609 84.961ZM4179.609-710.938L3760.664-710.938L3760.664-129.883L3832.930-129.883C4014.570-129.883 4128.828-135.742 4259.688-159.180L4249.922-236.328C4126.387-213.867 4020.430-209.473 3854.414-208.984L3854.414-633.789L4179.609-633.789ZM5166.563-726.563C5035.703-726.563 4943.906-607.422 4944.883-419.922C4943.906-231.445 5035.703-112.305 5166.563-112.305C5288.145-112.305 5377.012-218.262 5387.266-388.672L5566.953-388.672L5566.953 84.961L5658.750 84.961L5658.750-791.992L5566.953-791.992L5566.953-463.867L5386.289-463.867C5372.129-625.977 5285.215-726.563 5166.563-726.563ZM5166.563-643.555C5245.664-643.555 5300.352-557.617 5300.352-419.922C5300.352-281.250 5245.664-195.313 5166.563-195.313C5087.461-195.313 5032.773-281.250 5032.773-419.922C5032.773-557.617 5087.461-643.555 5166.563-643.555Z" fill="#0A0A0A" transform="translate(126.760 258.863) scale(0.023688)"></path>
</svg>